<svg class="main-svg" xmlns="http://www.w3.org/2000/svg" xmlns:xlink="http://www.w3.org/1999/xlink" width="650" height="650" style="" viewBox="0 0 650 650"><rect x="0" y="0" width="650" height="650" style="fill: rgb(255, 255, 255); fill-opacity: 1;"/><defs id="defs-f5762d"><g class="clips"><clipPath id="clipf5762dxyplot" class="plotclip"><rect width="490" height="456"/></clipPath><clipPath class="axesclip" id="clipf5762dx"><rect x="80" y="0" width="490" height="650"/></clipPath><clipPath class="axesclip" id="clipf5762dy"><rect x="0" y="60" width="650" height="456"/></clipPath><clipPath class="axesclip" id="clipf5762dxy"><rect x="80" y="60" width="490" height="456"/></clipPath></g><g class="gradients"/><g class="patterns"/></defs><g class="bglayer"/><g class="layer-below"><g class="imagelayer"/><g class="shapelayer"/></g><g class="cartesianlayer"><g class="subplot xy"><g class="layer-subplot"><g class="shapelayer"/><g class="imagelayer"/></g><g class="minor-gridlayer"><g class="x"/><g class="y"/></g><g class="gridlayer"><g class="x"/><g class="y"/></g><g class="zerolinelayer"/><path class="xlines-below"/><path class="ylines-below"/><g class="overlines-below"/><g class="xaxislayer-below"/><g class="yaxislayer-below"/><g class="overaxes-below"/><g class="plot" transform="translate(80,60)" clip-path="url(#clipf5762dxyplot)"><g class="scatterlayer mlayer"><g class="trace scatter trace122087" style="stroke-miterlimit: 2; opacity: 1;"><g class="fills"/><g class="errorbars"/><g class="lines"/><g class="points"><path class="point plotly-customdata" transform="translate(434.17,255.08)" d="M28.28,0A28.28,28.28 0 1,1 0,-28.28A28.28,28.28 0 0,1 28.28,0Z" style="opacity: 0.7; stroke-width: 2px; fill: rgb(176, 190, 197); fill-opacity: 1; stroke: rgb(47, 79, 79); stroke-opacity: 1;"/><path class="point plotly-customdata" transform="translate(62.18,437.48)" d="M27.1,0A27.1,27.1 0 1,1 0,-27.1A27.1,27.1 0 0,1 27.1,0Z" style="opacity: 0.7; stroke-width: 2px; fill: rgb(176, 190, 197); fill-opacity: 1; stroke: rgb(47, 79, 79); stroke-opacity: 1;"/><path class="point plotly-customdata" transform="translate(61.08,442.13)" d="M27.1,0A27.1,27.1 0 1,1 0,-27.1A27.1,27.1 0 0,1 27.1,0Z" style="opacity: 0.7; stroke-width: 2px; fill: rgb(176, 190, 197); fill-opacity: 1; stroke: rgb(47, 79, 79); stroke-opacity: 1;"/><path class="point plotly-customdata" transform="translate(84.52,239.88)" d="M25.64,0A25.64,25.64 0 1,1 0,-25.64A25.64,25.64 0 0,1 25.64,0Z" style="opacity: 0.7; stroke-width: 2px; fill: rgb(176, 190, 197); fill-opacity: 1; stroke: rgb(47, 79, 79); stroke-opacity: 1;"/><path class="point plotly-customdata" transform="translate(91.67,236.46)" d="M24.1,0A24.1,24.1 0 1,1 0,-24.1A24.1,24.1 0 0,1 24.1,0Z" style="opacity: 0.7; stroke-width: 2px; fill: rgb(176, 190, 197); fill-opacity: 1; stroke: rgb(47, 79, 79); stroke-opacity: 1;"/><path class="point plotly-customdata" transform="translate(81.81,368.1)" d="M23.41,0A23.41,23.41 0 1,1 0,-23.41A23.41,23.41 0 0,1 23.41,0Z" style="opacity: 0.7; stroke-width: 2px; fill: rgb(176, 190, 197); fill-opacity: 1; stroke: rgb(47, 79, 79); stroke-opacity: 1;"/><path class="point plotly-customdata" transform="translate(139.29,135.39)" d="M23.41,0A23.41,23.41 0 1,1 0,-23.41A23.41,23.41 0 0,1 23.41,0Z" style="opacity: 0.7; stroke-width: 2px; fill: rgb(176, 190, 197); fill-opacity: 1; stroke: rgb(47, 79, 79); stroke-opacity: 1;"/><path class="point plotly-customdata" transform="translate(64.7,175.81)" d="M23.17,0A23.17,23.17 0 1,1 0,-23.17A23.17,23.17 0 0,1 23.17,0Z" style="opacity: 0.7; stroke-width: 2px; fill: rgb(176, 190, 197); fill-opacity: 1; stroke: rgb(47, 79, 79); stroke-opacity: 1;"/><path class="point plotly-customdata" transform="translate(87.06,367.85)" d="M23.17,0A23.17,23.17 0 1,1 0,-23.17A23.17,23.17 0 0,1 23.17,0Z" style="opacity: 0.7; stroke-width: 2px; fill: rgb(176, 190, 197); fill-opacity: 1; stroke: rgb(47, 79, 79); stroke-opacity: 1;"/><path class="point plotly-customdata" transform="translate(60.45,170.36)" d="M22.94,0A22.94,22.94 0 1,1 0,-22.94A22.94,22.94 0 0,1 22.94,0Z" style="opacity: 0.7; stroke-width: 2px; fill: rgb(176, 190, 197); fill-opacity: 1; stroke: rgb(47, 79, 79); stroke-opacity: 1;"/><path class="point plotly-customdata" transform="translate(238.53,123.14)" d="M21.96,0A21.96,21.96 0 1,1 0,-21.96A21.96,21.96 0 0,1 21.96,0Z" style="opacity: 0.7; stroke-width: 2px; fill: rgb(176, 190, 197); fill-opacity: 1; stroke: rgb(47, 79, 79); stroke-opacity: 1;"/><path class="point plotly-customdata" transform="translate(198.18,197.66)" d="M20.41,0A20.41,20.41 0 1,1 0,-20.41A20.41,20.41 0 0,1 20.41,0Z" style="opacity: 0.7; stroke-width: 2px; fill: rgb(176, 190, 197); fill-opacity: 1; stroke: rgb(47, 79, 79); stroke-opacity: 1;"/><path class="point plotly-customdata" transform="translate(97.06,237.01)" d="M20.41,0A20.41,20.41 0 1,1 0,-20.41A20.41,20.41 0 0,1 20.41,0Z" style="opacity: 0.7; stroke-width: 2px; fill: rgb(176, 190, 197); fill-opacity: 1; stroke: rgb(47, 79, 79); stroke-opacity: 1;"/><path class="point plotly-customdata" transform="translate(60.34,438.98)" d="M19.3,0A19.3,19.3 0 1,1 0,-19.3A19.3,19.3 0 0,1 19.3,0Z" style="opacity: 0.7; stroke-width: 2px; fill: rgb(176, 190, 197); fill-opacity: 1; stroke: rgb(47, 79, 79); stroke-opacity: 1;"/><path class="point plotly-customdata" transform="translate(55.34,432.28)" d="M18.73,0A18.73,18.73 0 1,1 0,-18.73A18.73,18.73 0 0,1 18.73,0Z" style="opacity: 0.7; stroke-width: 2px; fill: rgb(176, 190, 197); fill-opacity: 1; stroke: rgb(47, 79, 79); stroke-opacity: 1;"/><path class="point plotly-customdata" transform="translate(139.3,135.35)" d="M18.43,0A18.43,18.43 0 1,1 0,-18.43A18.43,18.43 0 0,1 18.43,0Z" style="opacity: 0.7; stroke-width: 2px; fill: rgb(176, 190, 197); fill-opacity: 1; stroke: rgb(47, 79, 79); stroke-opacity: 1;"/><path class="point plotly-customdata" transform="translate(66.01,437.88)" d="M18.43,0A18.43,18.43 0 1,1 0,-18.43A18.43,18.43 0 0,1 18.43,0Z" style="opacity: 0.7; stroke-width: 2px; fill: rgb(176, 190, 197); fill-opacity: 1; stroke: rgb(47, 79, 79); stroke-opacity: 1;"/><path class="point plotly-customdata" transform="translate(238.68,369.3)" d="M18.13,0A18.13,18.13 0 1,1 0,-18.13A18.13,18.13 0 0,1 18.13,0Z" style="opacity: 0.7; stroke-width: 2px; fill: rgb(176, 190, 197); fill-opacity: 1; stroke: rgb(47, 79, 79); stroke-opacity: 1;"/><path class="point plotly-customdata" transform="translate(233.3,374.86)" d="M17.52,0A17.52,17.52 0 1,1 0,-17.52A17.52,17.52 0 0,1 17.52,0Z" style="opacity: 0.7; stroke-width: 2px; fill: rgb(176, 190, 197); fill-opacity: 1; stroke: rgb(47, 79, 79); stroke-opacity: 1;"/><path class="point plotly-customdata" transform="translate(227.99,302.24)" d="M17.52,0A17.52,17.52 0 1,1 0,-17.52A17.52,17.52 0 0,1 17.52,0Z" style="opacity: 0.7; stroke-width: 2px; fill: rgb(176, 190, 197); fill-opacity: 1; stroke: rgb(47, 79, 79); stroke-opacity: 1;"/><path class="point plotly-customdata" transform="translate(197.93,197.36)" d="M17.2,0A17.2,17.2 0 1,1 0,-17.2A17.2,17.2 0 0,1 17.2,0Z" style="opacity: 0.7; stroke-width: 2px; fill: rgb(176, 190, 197); fill-opacity: 1; stroke: rgb(47, 79, 79); stroke-opacity: 1;"/><path class="point plotly-customdata" transform="translate(84.38,366.1)" d="M16.88,0A16.88,16.88 0 1,1 0,-16.88A16.88,16.88 0 0,1 16.88,0Z" style="opacity: 0.7; stroke-width: 2px; fill: rgb(176, 190, 197); fill-opacity: 1; stroke: rgb(47, 79, 79); stroke-opacity: 1;"/><path class="point plotly-customdata" transform="translate(194.53,193.19)" d="M16.88,0A16.88,16.88 0 1,1 0,-16.88A16.88,16.88 0 0,1 16.88,0Z" style="opacity: 0.7; stroke-width: 2px; fill: rgb(176, 190, 197); fill-opacity: 1; stroke: rgb(47, 79, 79); stroke-opacity: 1;"/><path class="point plotly-customdata" transform="translate(98.91,238.24)" d="M16.55,0A16.55,16.55 0 1,1 0,-16.55A16.55,16.55 0 0,1 16.55,0Z" style="opacity: 0.7; stroke-width: 2px; fill: rgb(176, 190, 197); fill-opacity: 1; stroke: rgb(47, 79, 79); stroke-opacity: 1;"/><path class="point plotly-customdata" transform="translate(331.59,276.44)" d="M15.88,0A15.88,15.88 0 1,1 0,-15.88A15.88,15.88 0 0,1 15.88,0Z" style="opacity: 0.7; stroke-width: 2px; fill: rgb(176, 190, 197); fill-opacity: 1; stroke: rgb(47, 79, 79); stroke-opacity: 1;"/><path class="point plotly-customdata" transform="translate(437.92,259.61)" d="M15.88,0A15.88,15.88 0 1,1 0,-15.88A15.88,15.88 0 0,1 15.88,0Z" style="opacity: 0.7; stroke-width: 2px; fill: rgb(176, 190, 197); fill-opacity: 1; stroke: rgb(47, 79, 79); stroke-opacity: 1;"/><path class="point plotly-customdata" transform="translate(62.47,172.88)" d="M15.88,0A15.88,15.88 0 1,1 0,-15.88A15.88,15.88 0 0,1 15.88,0Z" style="opacity: 0.7; stroke-width: 2px; fill: rgb(176, 190, 197); fill-opacity: 1; stroke: rgb(47, 79, 79); stroke-opacity: 1;"/><path class="point plotly-customdata" transform="translate(55.97,432.81)" d="M15.53,0A15.53,15.53 0 1,1 0,-15.53A15.53,15.53 0 0,1 15.53,0Z" style="opacity: 0.7; stroke-width: 2px; fill: rgb(176, 190, 197); fill-opacity: 1; stroke: rgb(47, 79, 79); stroke-opacity: 1;"/><path class="point plotly-customdata" transform="translate(230.5,299.19)" d="M14.8,0A14.8,14.8 0 1,1 0,-14.8A14.8,14.8 0 0,1 14.8,0Z" style="opacity: 0.7; stroke-width: 2px; fill: rgb(176, 190, 197); fill-opacity: 1; stroke: rgb(47, 79, 79); stroke-opacity: 1;"/><path class="point plotly-customdata" transform="translate(330.49,275.12)" d="M14.8,0A14.8,14.8 0 1,1 0,-14.8A14.8,14.8 0 0,1 14.8,0Z" style="opacity: 0.7; stroke-width: 2px; fill: rgb(176, 190, 197); fill-opacity: 1; stroke: rgb(47, 79, 79); stroke-opacity: 1;"/><path class="point plotly-customdata" transform="translate(66.9,436.15)" d="M14.8,0A14.8,14.8 0 1,1 0,-14.8A14.8,14.8 0 0,1 14.8,0Z" style="opacity: 0.7; stroke-width: 2px; fill: rgb(176, 190, 197); fill-opacity: 1; stroke: rgb(47, 79, 79); stroke-opacity: 1;"/><path class="point plotly-customdata" transform="translate(52.48,160.99)" d="M14.8,0A14.8,14.8 0 1,1 0,-14.8A14.8,14.8 0 0,1 14.8,0Z" style="opacity: 0.7; stroke-width: 2px; fill: rgb(176, 190, 197); fill-opacity: 1; stroke: rgb(47, 79, 79); stroke-opacity: 1;"/><path class="point plotly-customdata" transform="translate(327.79,271.86)" d="M14.43,0A14.43,14.43 0 1,1 0,-14.43A14.43,14.43 0 0,1 14.43,0Z" style="opacity: 0.7; stroke-width: 2px; fill: rgb(176, 190, 197); fill-opacity: 1; stroke: rgb(47, 79, 79); stroke-opacity: 1;"/><path class="point plotly-customdata" transform="translate(198.82,198.45)" d="M14.43,0A14.43,14.43 0 1,1 0,-14.43A14.43,14.43 0 0,1 14.43,0Z" style="opacity: 0.7; stroke-width: 2px; fill: rgb(176, 190, 197); fill-opacity: 1; stroke: rgb(47, 79, 79); stroke-opacity: 1;"/><path class="point plotly-customdata" transform="translate(238.53,123.14)" d="M14.04,0A14.04,14.04 0 1,1 0,-14.04A14.04,14.04 0 0,1 14.04,0Z" style="opacity: 0.7; stroke-width: 2px; fill: rgb(176, 190, 197); fill-opacity: 1; stroke: rgb(47, 79, 79); stroke-opacity: 1;"/><path class="point plotly-customdata" transform="translate(92.26,237)" d="M14.04,0A14.04,14.04 0 1,1 0,-14.04A14.04,14.04 0 0,1 14.04,0Z" style="opacity: 0.7; stroke-width: 2px; fill: rgb(176, 190, 197); fill-opacity: 1; stroke: rgb(47, 79, 79); stroke-opacity: 1;"/><path class="point plotly-customdata" transform="translate(53.06,160.21)" d="M13.65,0A13.65,13.65 0 1,1 0,-13.65A13.65,13.65 0 0,1 13.65,0Z" style="opacity: 0.7; stroke-width: 2px; fill: rgb(176, 190, 197); fill-opacity: 1; stroke: rgb(47, 79, 79); stroke-opacity: 1;"/><path class="point plotly-customdata" transform="translate(231.18,375.27)" d="M13.65,0A13.65,13.65 0 1,1 0,-13.65A13.65,13.65 0 0,1 13.65,0Z" style="opacity: 0.7; stroke-width: 2px; fill: rgb(176, 190, 197); fill-opacity: 1; stroke: rgb(47, 79, 79); stroke-opacity: 1;"/><path class="point plotly-customdata" transform="translate(438.74,260.61)" d="M13.65,0A13.65,13.65 0 1,1 0,-13.65A13.65,13.65 0 0,1 13.65,0Z" style="opacity: 0.7; stroke-width: 2px; fill: rgb(176, 190, 197); fill-opacity: 1; stroke: rgb(47, 79, 79); stroke-opacity: 1;"/><path class="point plotly-customdata" transform="translate(335.13,280.74)" d="M13.24,0A13.24,13.24 0 1,1 0,-13.24A13.24,13.24 0 0,1 13.24,0Z" style="opacity: 0.7; stroke-width: 2px; fill: rgb(176, 190, 197); fill-opacity: 1; stroke: rgb(47, 79, 79); stroke-opacity: 1;"/><path class="point plotly-customdata" transform="translate(235.34,373.02)" d="M13.24,0A13.24,13.24 0 1,1 0,-13.24A13.24,13.24 0 0,1 13.24,0Z" style="opacity: 0.7; stroke-width: 2px; fill: rgb(176, 190, 197); fill-opacity: 1; stroke: rgb(47, 79, 79); stroke-opacity: 1;"/><path class="point plotly-customdata" transform="translate(434.86,255.92)" d="M12.82,0A12.82,12.82 0 1,1 0,-12.82A12.82,12.82 0 0,1 12.82,0Z" style="opacity: 0.7; stroke-width: 2px; fill: rgb(176, 190, 197); fill-opacity: 1; stroke: rgb(47, 79, 79); stroke-opacity: 1;"/><path class="point plotly-customdata" transform="translate(432.34,252.87)" d="M12.82,0A12.82,12.82 0 1,1 0,-12.82A12.82,12.82 0 0,1 12.82,0Z" style="opacity: 0.7; stroke-width: 2px; fill: rgb(176, 190, 197); fill-opacity: 1; stroke: rgb(47, 79, 79); stroke-opacity: 1;"/><path class="point plotly-customdata" transform="translate(54.39,161.95)" d="M12.82,0A12.82,12.82 0 1,1 0,-12.82A12.82,12.82 0 0,1 12.82,0Z" style="opacity: 0.7; stroke-width: 2px; fill: rgb(176, 190, 197); fill-opacity: 1; stroke: rgb(47, 79, 79); stroke-opacity: 1;"/><path class="point plotly-customdata" transform="translate(193.4,191.81)" d="M12.82,0A12.82,12.82 0 1,1 0,-12.82A12.82,12.82 0 0,1 12.82,0Z" style="opacity: 0.7; stroke-width: 2px; fill: rgb(176, 190, 197); fill-opacity: 1; stroke: rgb(47, 79, 79); stroke-opacity: 1;"/><path class="point plotly-customdata" transform="translate(83.3,240.77)" d="M12.82,0A12.82,12.82 0 1,1 0,-12.82A12.82,12.82 0 0,1 12.82,0Z" style="opacity: 0.7; stroke-width: 2px; fill: rgb(176, 190, 197); fill-opacity: 1; stroke: rgb(47, 79, 79); stroke-opacity: 1;"/><path class="point plotly-customdata" transform="translate(84.73,362.23)" d="M12.39,0A12.39,12.39 0 1,1 0,-12.39A12.39,12.39 0 0,1 12.39,0Z" style="opacity: 0.7; stroke-width: 2px; fill: rgb(176, 190, 197); fill-opacity: 1; stroke: rgb(47, 79, 79); stroke-opacity: 1;"/><path class="point plotly-customdata" transform="translate(235.93,364.85)" d="M12.39,0A12.39,12.39 0 1,1 0,-12.39A12.39,12.39 0 0,1 12.39,0Z" style="opacity: 0.7; stroke-width: 2px; fill: rgb(176, 190, 197); fill-opacity: 1; stroke: rgb(47, 79, 79); stroke-opacity: 1;"/><path class="point plotly-customdata" transform="translate(65.42,176.74)" d="M11.94,0A11.94,11.94 0 1,1 0,-11.94A11.94,11.94 0 0,1 11.94,0Z" style="opacity: 0.7; stroke-width: 2px; fill: rgb(176, 190, 197); fill-opacity: 1; stroke: rgb(47, 79, 79); stroke-opacity: 1;"/><path class="point plotly-customdata" transform="translate(230.03,299.74)" d="M11.94,0A11.94,11.94 0 1,1 0,-11.94A11.94,11.94 0 0,1 11.94,0Z" style="opacity: 0.7; stroke-width: 2px; fill: rgb(176, 190, 197); fill-opacity: 1; stroke: rgb(47, 79, 79); stroke-opacity: 1;"/><path class="point plotly-customdata" transform="translate(436.27,257.61)" d="M11.47,0A11.47,11.47 0 1,1 0,-11.47A11.47,11.47 0 0,1 11.47,0Z" style="opacity: 0.7; stroke-width: 2px; fill: rgb(176, 190, 197); fill-opacity: 1; stroke: rgb(47, 79, 79); stroke-opacity: 1;"/><path class="point plotly-customdata" transform="translate(12.66,45.61)" d="M11.47,0A11.47,11.47 0 1,1 0,-11.47A11.47,11.47 0 0,1 11.47,0Z" style="opacity: 0.7; stroke-width: 2px; fill: rgb(176, 190, 197); fill-opacity: 1; stroke: rgb(47, 79, 79); stroke-opacity: 1;"/><path class="point plotly-customdata" transform="translate(88.26,369.02)" d="M11.47,0A11.47,11.47 0 1,1 0,-11.47A11.47,11.47 0 0,1 11.47,0Z" style="opacity: 0.7; stroke-width: 2px; fill: rgb(176, 190, 197); fill-opacity: 1; stroke: rgb(47, 79, 79); stroke-opacity: 1;"/><path class="point plotly-customdata" transform="translate(56.13,163.99)" d="M11.47,0A11.47,11.47 0 1,1 0,-11.47A11.47,11.47 0 0,1 11.47,0Z" style="opacity: 0.7; stroke-width: 2px; fill: rgb(176, 190, 197); fill-opacity: 1; stroke: rgb(47, 79, 79); stroke-opacity: 1;"/><path class="point plotly-customdata" transform="translate(83.95,360.54)" d="M10.98,0A10.98,10.98 0 1,1 0,-10.98A10.98,10.98 0 0,1 10.98,0Z" style="opacity: 0.7; stroke-width: 2px; fill: rgb(176, 190, 197); fill-opacity: 1; stroke: rgb(47, 79, 79); stroke-opacity: 1;"/><path class="point plotly-customdata" transform="translate(89.75,233.06)" d="M10.98,0A10.98,10.98 0 1,1 0,-10.98A10.98,10.98 0 0,1 10.98,0Z" style="opacity: 0.7; stroke-width: 2px; fill: rgb(176, 190, 197); fill-opacity: 1; stroke: rgb(47, 79, 79); stroke-opacity: 1;"/><path class="point plotly-customdata" transform="translate(336.96,282.95)" d="M10.98,0A10.98,10.98 0 1,1 0,-10.98A10.98,10.98 0 0,1 10.98,0Z" style="opacity: 0.7; stroke-width: 2px; fill: rgb(176, 190, 197); fill-opacity: 1; stroke: rgb(47, 79, 79); stroke-opacity: 1;"/><path class="point plotly-customdata" transform="translate(12.66,45.62)" d="M10.47,0A10.47,10.47 0 1,1 0,-10.47A10.47,10.47 0 0,1 10.47,0Z" style="opacity: 0.7; stroke-width: 2px; fill: rgb(176, 190, 197); fill-opacity: 1; stroke: rgb(47, 79, 79); stroke-opacity: 1;"/><path class="point plotly-customdata" transform="translate(233.98,363.34)" d="M10.47,0A10.47,10.47 0 1,1 0,-10.47A10.47,10.47 0 0,1 10.47,0Z" style="opacity: 0.7; stroke-width: 2px; fill: rgb(176, 190, 197); fill-opacity: 1; stroke: rgb(47, 79, 79); stroke-opacity: 1;"/><path class="point plotly-customdata" transform="translate(54.24,430.59)" d="M10.47,0A10.47,10.47 0 1,1 0,-10.47A10.47,10.47 0 0,1 10.47,0Z" style="opacity: 0.7; stroke-width: 2px; fill: rgb(176, 190, 197); fill-opacity: 1; stroke: rgb(47, 79, 79); stroke-opacity: 1;"/></g><g class="text"/></g></g></g><g class="overplot"/><path class="xlines-above crisp" d="M0,0" style="fill: none;"/><path class="ylines-above crisp" d="M0,0" style="fill: none;"/><g class="overlines-above"/><g class="xaxislayer-above"/><g class="yaxislayer-above"/><g class="overaxes-above"/></g></g><g class="polarlayer"/><g class="smithlayer"/><g class="ternarylayer"/><g class="geolayer"/><g class="funnelarealayer"/><g class="pielayer"/><g class="iciclelayer"/><g class="treemaplayer"/><g class="sunburstlayer"/><g class="glimages"/><defs id="topdefs-f5762d"><g class="clips"/></defs><g class="layer-above"><g class="imagelayer"/><g class="shapelayer"><path data-index="0" fill-rule="evenodd" d="M325,516L325,60" clip-path="url(#clipf5762dxy)" style="opacity: 0.3; stroke: rgb(207, 216, 220); stroke-opacity: 1; fill: rgb(0, 0, 0); fill-opacity: 1; stroke-width: 2px;"/><path data-index="1" fill-rule="evenodd" d="M80,288L570,288" clip-path="url(#clipf5762dxy)" style="opacity: 0.3; stroke: rgb(158, 158, 158); stroke-opacity: 1; fill: rgb(0, 0, 0); fill-opacity: 1; stroke-width: 2px;"/></g></g><g class="infolayer"><g class="slider-container" style="cursor: ew-resize;"><g class="slider-group" transform="translate(80,566)"><text class="slider-label" text-anchor="left" data-notex="1" x="0" y="15.600000000000001" style="font-family: 'Open Sans', verdana, arial, sans-serif; font-size: 12px; fill: rgb(36, 36, 36); fill-opacity: 1; white-space: pre;">Topic 0</text><rect class="slider-rail-rect" width="474" height="5" rx="2" ry="2" shape-rendering="crispEdges" transform="translate(8,32.5)" style="stroke: rgb(190, 200, 217); stroke-opacity: 1; fill: rgb(248, 250, 252); fill-opacity: 1; stroke-width: 1px;"/><g class="slider-labels"><g class="slider-label-group" transform="translate(10,72.6)"><text class="slider-label" text-anchor="middle" data-notex="1" x="0" y="0" style="font-family: 'Open Sans', verdana, arial, sans-serif; font-size: 12px; fill: rgb(36, 36, 36); fill-opacity: 1; white-space: pre;">Topic 0</text></g><g class="slider-label-group" transform="translate(73.72881355932203,72.6)"><text class="slider-label" text-anchor="middle" data-notex="1" x="0" y="0" style="font-family: 'Open Sans', verdana, arial, sans-serif; font-size: 12px; fill: rgb(36, 36, 36); fill-opacity: 1; white-space: pre;">Topic 8</text></g><g class="slider-label-group" transform="translate(137.45762711864407,72.6)"><text class="slider-label" text-anchor="middle" data-notex="1" x="0" y="0" style="font-family: 'Open Sans', verdana, arial, sans-serif; font-size: 12px; fill: rgb(36, 36, 36); fill-opacity: 1; white-space: pre;">Topic 16</text></g><g class="slider-label-group" transform="translate(201.18644067796612,72.6)"><text class="slider-label" text-anchor="middle" data-notex="1" x="0" y="0" style="font-family: 'Open Sans', verdana, arial, sans-serif; font-size: 12px; fill: rgb(36, 36, 36); fill-opacity: 1; white-space: pre;">Topic 24</text></g><g class="slider-label-group" transform="translate(264.91525423728814,72.6)"><text class="slider-label" text-anchor="middle" data-notex="1" x="0" y="0" style="font-family: 'Open Sans', verdana, arial, sans-serif; font-size: 12px; fill: rgb(36, 36, 36); fill-opacity: 1; white-space: pre;">Topic 32</text></g><g class="slider-label-group" transform="translate(328.64406779661016,72.6)"><text class="slider-label" text-anchor="middle" data-notex="1" x="0" y="0" style="font-family: 'Open Sans', verdana, arial, sans-serif; font-size: 12px; fill: rgb(36, 36, 36); fill-opacity: 1; white-space: pre;">Topic 40</text></g><g class="slider-label-group" transform="translate(392.37288135593224,72.6)"><text class="slider-label" text-anchor="middle" data-notex="1" x="0" y="0" style="font-family: 'Open Sans', verdana, arial, sans-serif; font-size: 12px; fill: rgb(36, 36, 36); fill-opacity: 1; white-space: pre;">Topic 48</text></g><g class="slider-label-group" transform="translate(456.10169491525426,72.6)"><text class="slider-label" text-anchor="middle" data-notex="1" x="0" y="0" style="font-family: 'Open Sans', verdana, arial, sans-serif; font-size: 12px; fill: rgb(36, 36, 36); fill-opacity: 1; white-space: pre;">Topic 56</text></g></g><rect class="slider-tick-rect" width="1px" shape-rendering="crispEdges" height="7" transform="translate(9.5,50)" style="fill: rgb(51, 51, 51); fill-opacity: 1;"/><rect class="slider-tick-rect" width="1px" shape-rendering="crispEdges" height="4" transform="translate(17.466101694915253,50)" style="fill: rgb(51, 51, 51); fill-opacity: 1;"/><rect class="slider-tick-rect" width="1px" shape-rendering="crispEdges" height="4" transform="translate(25.43220338983051,50)" style="fill: rgb(51, 51, 51); fill-opacity: 1;"/><rect class="slider-tick-rect" width="1px" shape-rendering="crispEdges" height="4" transform="translate(33.398305084745765,50)" style="fill: rgb(51, 51, 51); fill-opacity: 1;"/><rect class="slider-tick-rect" width="1px" shape-rendering="crispEdges" height="4" transform="translate(41.36440677966102,50)" style="fill: rgb(51, 51, 51); fill-opacity: 1;"/><rect class="slider-tick-rect" width="1px" shape-rendering="crispEdges" height="4" transform="translate(49.33050847457627,50)" style="fill: rgb(51, 51, 51); fill-opacity: 1;"/><rect class="slider-tick-rect" width="1px" shape-rendering="crispEdges" height="4" transform="translate(57.29661016949153,50)" style="fill: rgb(51, 51, 51); fill-opacity: 1;"/><rect class="slider-tick-rect" width="1px" shape-rendering="crispEdges" height="4" transform="translate(65.26271186440678,50)" style="fill: rgb(51, 51, 51); fill-opacity: 1;"/><rect class="slider-tick-rect" width="1px" shape-rendering="crispEdges" height="7" transform="translate(73.22881355932203,50)" style="fill: rgb(51, 51, 51); fill-opacity: 1;"/><rect class="slider-tick-rect" width="1px" shape-rendering="crispEdges" height="4" transform="translate(81.19491525423729,50)" style="fill: rgb(51, 51, 51); fill-opacity: 1;"/><rect class="slider-tick-rect" width="1px" shape-rendering="crispEdges" height="4" transform="translate(89.16101694915254,50)" style="fill: rgb(51, 51, 51); fill-opacity: 1;"/><rect class="slider-tick-rect" width="1px" shape-rendering="crispEdges" height="4" transform="translate(97.12711864406779,50)" style="fill: rgb(51, 51, 51); fill-opacity: 1;"/><rect class="slider-tick-rect" width="1px" shape-rendering="crispEdges" height="4" transform="translate(105.09322033898306,50)" style="fill: rgb(51, 51, 51); fill-opacity: 1;"/><rect class="slider-tick-rect" width="1px" shape-rendering="crispEdges" height="4" transform="translate(113.0593220338983,50)" style="fill: rgb(51, 51, 51); fill-opacity: 1;"/><rect class="slider-tick-rect" width="1px" shape-rendering="crispEdges" height="4" transform="translate(121.02542372881356,50)" style="fill: rgb(51, 51, 51); fill-opacity: 1;"/><rect class="slider-tick-rect" width="1px" shape-rendering="crispEdges" height="4" transform="translate(128.9915254237288,50)" style="fill: rgb(51, 51, 51); fill-opacity: 1;"/><rect class="slider-tick-rect" width="1px" shape-rendering="crispEdges" height="7" transform="translate(136.95762711864407,50)" style="fill: rgb(51, 51, 51); fill-opacity: 1;"/><rect class="slider-tick-rect" width="1px" shape-rendering="crispEdges" height="4" transform="translate(144.92372881355934,50)" style="fill: rgb(51, 51, 51); fill-opacity: 1;"/><rect class="slider-tick-rect" width="1px" shape-rendering="crispEdges" height="4" transform="translate(152.88983050847457,50)" style="fill: rgb(51, 51, 51); fill-opacity: 1;"/><rect class="slider-tick-rect" width="1px" shape-rendering="crispEdges" height="4" transform="translate(160.8559322033898,50)" style="fill: rgb(51, 51, 51); fill-opacity: 1;"/><rect class="slider-tick-rect" width="1px" shape-rendering="crispEdges" height="4" transform="translate(168.82203389830508,50)" style="fill: rgb(51, 51, 51); fill-opacity: 1;"/><rect class="slider-tick-rect" width="1px" shape-rendering="crispEdges" height="4" transform="translate(176.78813559322035,50)" style="fill: rgb(51, 51, 51); fill-opacity: 1;"/><rect class="slider-tick-rect" width="1px" shape-rendering="crispEdges" height="4" transform="translate(184.75423728813558,50)" style="fill: rgb(51, 51, 51); fill-opacity: 1;"/><rect class="slider-tick-rect" width="1px" shape-rendering="crispEdges" height="4" transform="translate(192.72033898305085,50)" style="fill: rgb(51, 51, 51); fill-opacity: 1;"/><rect class="slider-tick-rect" width="1px" shape-rendering="crispEdges" height="7" transform="translate(200.68644067796612,50)" style="fill: rgb(51, 51, 51); fill-opacity: 1;"/><rect class="slider-tick-rect" width="1px" shape-rendering="crispEdges" height="4" transform="translate(208.65254237288136,50)" style="fill: rgb(51, 51, 51); fill-opacity: 1;"/><rect class="slider-tick-rect" width="1px" shape-rendering="crispEdges" height="4" transform="translate(216.6186440677966,50)" style="fill: rgb(51, 51, 51); fill-opacity: 1;"/><rect class="slider-tick-rect" width="1px" shape-rendering="crispEdges" height="4" transform="translate(224.58474576271186,50)" style="fill: rgb(51, 51, 51); fill-opacity: 1;"/><rect class="slider-tick-rect" width="1px" shape-rendering="crispEdges" height="4" transform="translate(232.55084745762713,50)" style="fill: rgb(51, 51, 51); fill-opacity: 1;"/><rect class="slider-tick-rect" width="1px" shape-rendering="crispEdges" height="4" transform="translate(240.5169491525424,50)" style="fill: rgb(51, 51, 51); fill-opacity: 1;"/><rect class="slider-tick-rect" width="1px" shape-rendering="crispEdges" height="4" transform="translate(248.4830508474576,50)" style="fill: rgb(51, 51, 51); fill-opacity: 1;"/><rect class="slider-tick-rect" width="1px" shape-rendering="crispEdges" height="4" transform="translate(256.4491525423729,50)" style="fill: rgb(51, 51, 51); fill-opacity: 1;"/><rect class="slider-tick-rect" width="1px" shape-rendering="crispEdges" height="7" transform="translate(264.41525423728814,50)" style="fill: rgb(51, 51, 51); fill-opacity: 1;"/><rect class="slider-tick-rect" width="1px" shape-rendering="crispEdges" height="4" transform="translate(272.38135593220335,50)" style="fill: rgb(51, 51, 51); fill-opacity: 1;"/><rect class="slider-tick-rect" width="1px" shape-rendering="crispEdges" height="4" transform="translate(280.3474576271187,50)" style="fill: rgb(51, 51, 51); fill-opacity: 1;"/><rect class="slider-tick-rect" width="1px" shape-rendering="crispEdges" height="4" transform="translate(288.3135593220339,50)" style="fill: rgb(51, 51, 51); fill-opacity: 1;"/><rect class="slider-tick-rect" width="1px" shape-rendering="crispEdges" height="4" transform="translate(296.27966101694915,50)" style="fill: rgb(51, 51, 51); fill-opacity: 1;"/><rect class="slider-tick-rect" width="1px" shape-rendering="crispEdges" height="4" transform="translate(304.2457627118644,50)" style="fill: rgb(51, 51, 51); fill-opacity: 1;"/><rect class="slider-tick-rect" width="1px" shape-rendering="crispEdges" height="4" transform="translate(312.2118644067796,50)" style="fill: rgb(51, 51, 51); fill-opacity: 1;"/><rect class="slider-tick-rect" width="1px" shape-rendering="crispEdges" height="4" transform="translate(320.17796610169495,50)" style="fill: rgb(51, 51, 51); fill-opacity: 1;"/><rect class="slider-tick-rect" width="1px" shape-rendering="crispEdges" height="7" transform="translate(328.14406779661016,50)" style="fill: rgb(51, 51, 51); fill-opacity: 1;"/><rect class="slider-tick-rect" width="1px" shape-rendering="crispEdges" height="4" transform="translate(336.1101694915254,50)" style="fill: rgb(51, 51, 51); fill-opacity: 1;"/><rect class="slider-tick-rect" width="1px" shape-rendering="crispEdges" height="4" transform="translate(344.0762711864407,50)" style="fill: rgb(51, 51, 51); fill-opacity: 1;"/><rect class="slider-tick-rect" width="1px" shape-rendering="crispEdges" height="4" transform="translate(352.0423728813559,50)" style="fill: rgb(51, 51, 51); fill-opacity: 1;"/><rect class="slider-tick-rect" width="1px" shape-rendering="crispEdges" height="4" transform="translate(360.00847457627117,50)" style="fill: rgb(51, 51, 51); fill-opacity: 1;"/><rect class="slider-tick-rect" width="1px" shape-rendering="crispEdges" height="4" transform="translate(367.97457627118644,50)" style="fill: rgb(51, 51, 51); fill-opacity: 1;"/><rect class="slider-tick-rect" width="1px" shape-rendering="crispEdges" height="4" transform="translate(375.9406779661017,50)" style="fill: rgb(51, 51, 51); fill-opacity: 1;"/><rect class="slider-tick-rect" width="1px" shape-rendering="crispEdges" height="4" transform="translate(383.90677966101697,50)" style="fill: rgb(51, 51, 51); fill-opacity: 1;"/><rect class="slider-tick-rect" width="1px" shape-rendering="crispEdges" height="7" transform="translate(391.87288135593224,50)" style="fill: rgb(51, 51, 51); fill-opacity: 1;"/><rect class="slider-tick-rect" width="1px" shape-rendering="crispEdges" height="4" transform="translate(399.83898305084745,50)" style="fill: rgb(51, 51, 51); fill-opacity: 1;"/><rect class="slider-tick-rect" width="1px" shape-rendering="crispEdges" height="4" transform="translate(407.8050847457627,50)" style="fill: rgb(51, 51, 51); fill-opacity: 1;"/><rect class="slider-tick-rect" width="1px" shape-rendering="crispEdges" height="4" transform="translate(415.771186440678,50)" style="fill: rgb(51, 51, 51); fill-opacity: 1;"/><rect class="slider-tick-rect" width="1px" shape-rendering="crispEdges" height="4" transform="translate(423.7372881355932,50)" style="fill: rgb(51, 51, 51); fill-opacity: 1;"/><rect class="slider-tick-rect" width="1px" shape-rendering="crispEdges" height="4" transform="translate(431.7033898305085,50)" style="fill: rgb(51, 51, 51); fill-opacity: 1;"/><rect class="slider-tick-rect" width="1px" shape-rendering="crispEdges" height="4" transform="translate(439.6694915254237,50)" style="fill: rgb(51, 51, 51); fill-opacity: 1;"/><rect class="slider-tick-rect" width="1px" shape-rendering="crispEdges" height="4" transform="translate(447.635593220339,50)" style="fill: rgb(51, 51, 51); fill-opacity: 1;"/><rect class="slider-tick-rect" width="1px" shape-rendering="crispEdges" height="7" transform="translate(455.60169491525426,50)" style="fill: rgb(51, 51, 51); fill-opacity: 1;"/><rect class="slider-tick-rect" width="1px" shape-rendering="crispEdges" height="4" transform="translate(463.56779661016947,50)" style="fill: rgb(51, 51, 51); fill-opacity: 1;"/><rect class="slider-tick-rect" width="1px" shape-rendering="crispEdges" height="4" transform="translate(471.5338983050848,50)" style="fill: rgb(51, 51, 51); fill-opacity: 1;"/><rect class="slider-tick-rect" width="1px" shape-rendering="crispEdges" height="4" transform="translate(479.5,50)" style="fill: rgb(51, 51, 51); fill-opacity: 1;"/><rect class="slider-rail-touch-rect" width="490" height="46.5" opacity="0" transform="translate(0,25)" style="pointer-events: all; fill: rgb(248, 250, 252); fill-opacity: 1;"/><rect class="slider-grip-rect" width="20" height="20" rx="10" ry="10" transform="translate(0,25)" style="pointer-events: all; stroke: rgb(190, 200, 217); stroke-opacity: 1; fill: rgb(248, 250, 252); fill-opacity: 1; stroke-width: 1px;"/></g></g><g class="g-gtitle"><text class="gtitle" x="325" y="32.5" text-anchor="middle" dy="0.7em" style="font-family: 'Open Sans', verdana, arial, sans-serif; font-size: 22px; fill: rgb(0, 0, 0); opacity: 1; font-weight: normal; white-space: pre;"><tspan style="font-weight:bold">Intertopic Distance Map</tspan></text></g><g class="annotation" data-index="0" style="opacity: 1;"><g class="annotation-text-g" transform="rotate(0,80,278)"><g class="cursor-pointer" transform="translate(70,269)"><rect class="bg" x="0.5" y="0.5" width="20" height="18" style="stroke-width: 1px; stroke: rgb(0, 0, 0); stroke-opacity: 0; fill: rgb(0, 0, 0); fill-opacity: 0;"/><text class="annotation-text" text-anchor="middle" x="10.4375" y="14" style="font-family: 'Open Sans', verdana, arial, sans-serif; font-size: 12px; fill: rgb(36, 36, 36); fill-opacity: 1; white-space: pre;">D1</text></g></g></g><g class="annotation" data-index="1" style="opacity: 1;"><g class="annotation-text-g" transform="rotate(0,335,60)"><g class="cursor-pointer" transform="translate(325,51)"><rect class="bg" x="0.5" y="0.5" width="20" height="18" style="stroke-width: 1px; stroke: rgb(0, 0, 0); stroke-opacity: 0; fill: rgb(0, 0, 0); fill-opacity: 0;"/><text class="annotation-text" text-anchor="middle" x="10.4375" y="14" style="font-family: 'Open Sans', verdana, arial, sans-serif; font-size: 12px; fill: rgb(36, 36, 36); fill-opacity: 1; white-space: pre;">D2</text></g></g></g></g></svg>