<svg class="main-svg" xmlns="http://www.w3.org/2000/svg" xmlns:xlink="http://www.w3.org/1999/xlink" width="650" height="650" style="" viewBox="0 0 650 650"><rect x="0" y="0" width="650" height="650" style="fill: rgb(255, 255, 255); fill-opacity: 1;"/><defs id="defs-62f4e9"><g class="clips"><clipPath id="clip62f4e9xyplot" class="plotclip"><rect width="490" height="456"/></clipPath><clipPath class="axesclip" id="clip62f4e9x"><rect x="80" y="0" width="490" height="650"/></clipPath><clipPath class="axesclip" id="clip62f4e9y"><rect x="0" y="60" width="650" height="456"/></clipPath><clipPath class="axesclip" id="clip62f4e9xy"><rect x="80" y="60" width="490" height="456"/></clipPath></g><g class="gradients"/><g class="patterns"/></defs><g class="bglayer"/><g class="layer-below"><g class="imagelayer"/><g class="shapelayer"/></g><g class="cartesianlayer"><g class="subplot xy"><g class="layer-subplot"><g class="shapelayer"/><g class="imagelayer"/></g><g class="minor-gridlayer"><g class="x"/><g class="y"/></g><g class="gridlayer"><g class="x"/><g class="y"/></g><g class="zerolinelayer"/><path class="xlines-below"/><path class="ylines-below"/><g class="overlines-below"/><g class="xaxislayer-below"/><g class="yaxislayer-below"/><g class="overaxes-below"/><g class="plot" transform="translate(80,60)" clip-path="url(#clip62f4e9xyplot)"><g class="scatterlayer mlayer"><g class="trace scatter traceb65678" style="stroke-miterlimit: 2; opacity: 1;"><g class="fills"/><g class="errorbars"/><g class="lines"/><g class="points"><path class="point plotly-customdata" transform="translate(193.16,388.38)" d="M28.28,0A28.28,28.28 0 1,1 0,-28.28A28.28,28.28 0 0,1 28.28,0Z" style="opacity: 0.7; stroke-width: 2px; fill: rgb(176, 190, 197); fill-opacity: 1; stroke: rgb(47, 79, 79); stroke-opacity: 1;"/><path class="point plotly-customdata" transform="translate(195.89,393.64)" d="M14.01,0A14.01,14.01 0 1,1 0,-14.01A14.01,14.01 0 0,1 14.01,0Z" style="opacity: 0.7; stroke-width: 2px; fill: rgb(176, 190, 197); fill-opacity: 1; stroke: rgb(47, 79, 79); stroke-opacity: 1;"/><path class="point plotly-customdata" transform="translate(222.11,109.75)" d="M9.61,0A9.61,9.61 0 1,1 0,-9.61A9.61,9.61 0 0,1 9.61,0Z" style="opacity: 0.7; stroke-width: 2px; fill: rgb(176, 190, 197); fill-opacity: 1; stroke: rgb(47, 79, 79); stroke-opacity: 1;"/><path class="point plotly-customdata" transform="translate(197.55,405.43)" d="M9.21,0A9.21,9.21 0 1,1 0,-9.21A9.21,9.21 0 0,1 9.21,0Z" style="opacity: 0.7; stroke-width: 2px; fill: rgb(176, 190, 197); fill-opacity: 1; stroke: rgb(47, 79, 79); stroke-opacity: 1;"/><path class="point plotly-customdata" transform="translate(21.03,445.49)" d="M8.71,0A8.71,8.71 0 1,1 0,-8.71A8.71,8.71 0 0,1 8.71,0Z" style="opacity: 0.7; stroke-width: 2px; fill: rgb(176, 190, 197); fill-opacity: 1; stroke: rgb(47, 79, 79); stroke-opacity: 1;"/><path class="point plotly-customdata" transform="translate(226.06,136.57)" d="M7.96,0A7.96,7.96 0 1,1 0,-7.96A7.96,7.96 0 0,1 7.96,0Z" style="opacity: 0.7; stroke-width: 2px; fill: rgb(176, 190, 197); fill-opacity: 1; stroke: rgb(47, 79, 79); stroke-opacity: 1;"/><path class="point plotly-customdata" transform="translate(17.56,431.62)" d="M7.88,0A7.88,7.88 0 1,1 0,-7.88A7.88,7.88 0 0,1 7.88,0Z" style="opacity: 0.7; stroke-width: 2px; fill: rgb(176, 190, 197); fill-opacity: 1; stroke: rgb(47, 79, 79); stroke-opacity: 1;"/><path class="point plotly-customdata" transform="translate(441.69,382.52)" d="M7.46,0A7.46,7.46 0 1,1 0,-7.46A7.46,7.46 0 0,1 7.46,0Z" style="opacity: 0.7; stroke-width: 2px; fill: rgb(176, 190, 197); fill-opacity: 1; stroke: rgb(47, 79, 79); stroke-opacity: 1;"/><path class="point plotly-customdata" transform="translate(191.74,430.8)" d="M6.36,0A6.36,6.36 0 1,1 0,-6.36A6.36,6.36 0 0,1 6.36,0Z" style="opacity: 0.7; stroke-width: 2px; fill: rgb(176, 190, 197); fill-opacity: 1; stroke: rgb(47, 79, 79); stroke-opacity: 1;"/><path class="point plotly-customdata" transform="translate(194.71,408.84)" d="M6.26,0A6.26,6.26 0 1,1 0,-6.26A6.26,6.26 0 0,1 6.26,0Z" style="opacity: 0.7; stroke-width: 2px; fill: rgb(176, 190, 197); fill-opacity: 1; stroke: rgb(47, 79, 79); stroke-opacity: 1;"/><path class="point plotly-customdata" transform="translate(438.73,378.13)" d="M5.95,0A5.95,5.95 0 1,1 0,-5.95A5.95,5.95 0 0,1 5.95,0Z" style="opacity: 0.7; stroke-width: 2px; fill: rgb(176, 190, 197); fill-opacity: 1; stroke: rgb(47, 79, 79); stroke-opacity: 1;"/><path class="point plotly-customdata" transform="translate(180.52,427.83)" d="M5.95,0A5.95,5.95 0 1,1 0,-5.95A5.95,5.95 0 0,1 5.95,0Z" style="opacity: 0.7; stroke-width: 2px; fill: rgb(176, 190, 197); fill-opacity: 1; stroke: rgb(47, 79, 79); stroke-opacity: 1;"/><path class="point plotly-customdata" transform="translate(19.25,453.23)" d="M5.85,0A5.85,5.85 0 1,1 0,-5.85A5.85,5.85 0 0,1 5.85,0Z" style="opacity: 0.7; stroke-width: 2px; fill: rgb(176, 190, 197); fill-opacity: 1; stroke: rgb(47, 79, 79); stroke-opacity: 1;"/><path class="point plotly-customdata" transform="translate(224.35,142.82)" d="M5.74,0A5.74,5.74 0 1,1 0,-5.74A5.74,5.74 0 0,1 5.74,0Z" style="opacity: 0.7; stroke-width: 2px; fill: rgb(176, 190, 197); fill-opacity: 1; stroke: rgb(47, 79, 79); stroke-opacity: 1;"/><path class="point plotly-customdata" transform="translate(189.45,435.26)" d="M5.4,0A5.4,5.4 0 1,1 0,-5.4A5.4,5.4 0 0,1 5.4,0Z" style="opacity: 0.7; stroke-width: 2px; fill: rgb(176, 190, 197); fill-opacity: 1; stroke: rgb(47, 79, 79); stroke-opacity: 1;"/><path class="point plotly-customdata" transform="translate(186.92,430.7)" d="M5.28,0A5.28,5.28 0 1,1 0,-5.28A5.28,5.28 0 0,1 5.28,0Z" style="opacity: 0.7; stroke-width: 2px; fill: rgb(176, 190, 197); fill-opacity: 1; stroke: rgb(47, 79, 79); stroke-opacity: 1;"/><path class="point plotly-customdata" transform="translate(127.65,61.4)" d="M5.03,0A5.03,5.03 0 1,1 0,-5.03A5.03,5.03 0 0,1 5.03,0Z" style="opacity: 0.7; stroke-width: 2px; fill: rgb(176, 190, 197); fill-opacity: 1; stroke: rgb(47, 79, 79); stroke-opacity: 1;"/><path class="point plotly-customdata" transform="translate(233.03,145.23)" d="M4.9,0A4.9,4.9 0 1,1 0,-4.9A4.9,4.9 0 0,1 4.9,0Z" style="opacity: 0.7; stroke-width: 2px; fill: rgb(176, 190, 197); fill-opacity: 1; stroke: rgb(47, 79, 79); stroke-opacity: 1;"/><path class="point plotly-customdata" transform="translate(230.06,142.67)" d="M4.9,0A4.9,4.9 0 1,1 0,-4.9A4.9,4.9 0 0,1 4.9,0Z" style="opacity: 0.7; stroke-width: 2px; fill: rgb(176, 190, 197); fill-opacity: 1; stroke: rgb(47, 79, 79); stroke-opacity: 1;"/><path class="point plotly-customdata" transform="translate(127,62.4)" d="M4.77,0A4.77,4.77 0 1,1 0,-4.77A4.77,4.77 0 0,1 4.77,0Z" style="opacity: 0.7; stroke-width: 2px; fill: rgb(176, 190, 197); fill-opacity: 1; stroke: rgb(47, 79, 79); stroke-opacity: 1;"/><path class="point plotly-customdata" transform="translate(224.96,116.33)" d="M4.5,0A4.5,4.5 0 1,1 0,-4.5A4.5,4.5 0 0,1 4.5,0Z" style="opacity: 0.7; stroke-width: 2px; fill: rgb(176, 190, 197); fill-opacity: 1; stroke: rgb(47, 79, 79); stroke-opacity: 1;"/><path class="point plotly-customdata" transform="translate(183.44,408.33)" d="M4.36,0A4.36,4.36 0 1,1 0,-4.36A4.36,4.36 0 0,1 4.36,0Z" style="opacity: 0.7; stroke-width: 2px; fill: rgb(176, 190, 197); fill-opacity: 1; stroke: rgb(47, 79, 79); stroke-opacity: 1;"/><path class="point plotly-customdata" transform="translate(225.89,121.89)" d="M4.36,0A4.36,4.36 0 1,1 0,-4.36A4.36,4.36 0 0,1 4.36,0Z" style="opacity: 0.7; stroke-width: 2px; fill: rgb(176, 190, 197); fill-opacity: 1; stroke: rgb(47, 79, 79); stroke-opacity: 1;"/><path class="point plotly-customdata" transform="translate(227.29,152.73)" d="M4.36,0A4.36,4.36 0 1,1 0,-4.36A4.36,4.36 0 0,1 4.36,0Z" style="opacity: 0.7; stroke-width: 2px; fill: rgb(176, 190, 197); fill-opacity: 1; stroke: rgb(47, 79, 79); stroke-opacity: 1;"/><path class="point plotly-customdata" transform="translate(16.55,448.06)" d="M4.36,0A4.36,4.36 0 1,1 0,-4.36A4.36,4.36 0 0,1 4.36,0Z" style="opacity: 0.7; stroke-width: 2px; fill: rgb(176, 190, 197); fill-opacity: 1; stroke: rgb(47, 79, 79); stroke-opacity: 1;"/><path class="point plotly-customdata" transform="translate(436.71,375.14)" d="M4.21,0A4.21,4.21 0 1,1 0,-4.21A4.21,4.21 0 0,1 4.21,0Z" style="opacity: 0.7; stroke-width: 2px; fill: rgb(176, 190, 197); fill-opacity: 1; stroke: rgb(47, 79, 79); stroke-opacity: 1;"/><path class="point plotly-customdata" transform="translate(15.6,427.56)" d="M4.06,0A4.06,4.06 0 1,1 0,-4.06A4.06,4.06 0 0,1 4.06,0Z" style="opacity: 0.7; stroke-width: 2px; fill: rgb(176, 190, 197); fill-opacity: 1; stroke: rgb(47, 79, 79); stroke-opacity: 1;"/><path class="point plotly-customdata" transform="translate(224.9,158.82)" d="M3.9,0A3.9,3.9 0 1,1 0,-3.9A3.9,3.9 0 0,1 3.9,0Z" style="opacity: 0.7; stroke-width: 2px; fill: rgb(176, 190, 197); fill-opacity: 1; stroke: rgb(47, 79, 79); stroke-opacity: 1;"/><path class="point plotly-customdata" transform="translate(187.97,411.49)" d="M3.9,0A3.9,3.9 0 1,1 0,-3.9A3.9,3.9 0 0,1 3.9,0Z" style="opacity: 0.7; stroke-width: 2px; fill: rgb(176, 190, 197); fill-opacity: 1; stroke: rgb(47, 79, 79); stroke-opacity: 1;"/><path class="point plotly-customdata" transform="translate(130.82,56.71)" d="M3.73,0A3.73,3.73 0 1,1 0,-3.73A3.73,3.73 0 0,1 3.73,0Z" style="opacity: 0.7; stroke-width: 2px; fill: rgb(176, 190, 197); fill-opacity: 1; stroke: rgb(47, 79, 79); stroke-opacity: 1;"/><path class="point plotly-customdata" transform="translate(218.24,115.6)" d="M3.73,0A3.73,3.73 0 1,1 0,-3.73A3.73,3.73 0 0,1 3.73,0Z" style="opacity: 0.7; stroke-width: 2px; fill: rgb(176, 190, 197); fill-opacity: 1; stroke: rgb(47, 79, 79); stroke-opacity: 1;"/></g><g class="text"/></g></g></g><g class="overplot"/><path class="xlines-above crisp" d="M0,0" style="fill: none;"/><path class="ylines-above crisp" d="M0,0" style="fill: none;"/><g class="overlines-above"/><g class="xaxislayer-above"/><g class="yaxislayer-above"/><g class="overaxes-above"/></g></g><g class="polarlayer"/><g class="smithlayer"/><g class="ternarylayer"/><g class="geolayer"/><g class="funnelarealayer"/><g class="pielayer"/><g class="iciclelayer"/><g class="treemaplayer"/><g class="sunburstlayer"/><g class="glimages"/><defs id="topdefs-62f4e9"><g class="clips"/></defs><g class="layer-above"><g class="imagelayer"/><g class="shapelayer"><path data-index="0" fill-rule="evenodd" d="M325,516L325,60" clip-path="url(#clip62f4e9xy)" style="opacity: 0.3; stroke: rgb(207, 216, 220); stroke-opacity: 1; fill: rgb(0, 0, 0); fill-opacity: 1; stroke-width: 2px;"/><path data-index="1" fill-rule="evenodd" d="M80,288L570,288" clip-path="url(#clip62f4e9xy)" style="opacity: 0.3; stroke: rgb(158, 158, 158); stroke-opacity: 1; fill: rgb(0, 0, 0); fill-opacity: 1; stroke-width: 2px;"/></g></g><g class="infolayer"><g class="slider-container" style="cursor: ew-resize;"><g class="slider-group" transform="translate(80,566)"><text class="slider-label" text-anchor="left" data-notex="1" x="0" y="15.600000000000001" style="font-family: 'Open Sans', verdana, arial, sans-serif; font-size: 12px; fill: rgb(36, 36, 36); fill-opacity: 1; white-space: pre;">Topic 0</text><rect class="slider-rail-rect" width="474" height="5" rx="2" ry="2" shape-rendering="crispEdges" transform="translate(8,32.5)" style="stroke: rgb(190, 200, 217); stroke-opacity: 1; fill: rgb(248, 250, 252); fill-opacity: 1; stroke-width: 1px;"/><g class="slider-labels"><g class="slider-label-group" transform="translate(10,72.6)"><text class="slider-label" text-anchor="middle" data-notex="1" x="0" y="0" style="font-family: 'Open Sans', verdana, arial, sans-serif; font-size: 12px; fill: rgb(36, 36, 36); fill-opacity: 1; white-space: pre;">Topic 0</text></g><g class="slider-label-group" transform="translate(72.66666666666666,72.6)"><text class="slider-label" text-anchor="middle" data-notex="1" x="0" y="0" style="font-family: 'Open Sans', verdana, arial, sans-serif; font-size: 12px; fill: rgb(36, 36, 36); fill-opacity: 1; white-space: pre;">Topic 4</text></g><g class="slider-label-group" transform="translate(135.33333333333331,72.6)"><text class="slider-label" text-anchor="middle" data-notex="1" x="0" y="0" style="font-family: 'Open Sans', verdana, arial, sans-serif; font-size: 12px; fill: rgb(36, 36, 36); fill-opacity: 1; white-space: pre;">Topic 8</text></g><g class="slider-label-group" transform="translate(198,72.6)"><text class="slider-label" text-anchor="middle" data-notex="1" x="0" y="0" style="font-family: 'Open Sans', verdana, arial, sans-serif; font-size: 12px; fill: rgb(36, 36, 36); fill-opacity: 1; white-space: pre;">Topic 12</text></g><g class="slider-label-group" transform="translate(260.66666666666663,72.6)"><text class="slider-label" text-anchor="middle" data-notex="1" x="0" y="0" style="font-family: 'Open Sans', verdana, arial, sans-serif; font-size: 12px; fill: rgb(36, 36, 36); fill-opacity: 1; white-space: pre;">Topic 16</text></g><g class="slider-label-group" transform="translate(323.3333333333333,72.6)"><text class="slider-label" text-anchor="middle" data-notex="1" x="0" y="0" style="font-family: 'Open Sans', verdana, arial, sans-serif; font-size: 12px; fill: rgb(36, 36, 36); fill-opacity: 1; white-space: pre;">Topic 20</text></g><g class="slider-label-group" transform="translate(386,72.6)"><text class="slider-label" text-anchor="middle" data-notex="1" x="0" y="0" style="font-family: 'Open Sans', verdana, arial, sans-serif; font-size: 12px; fill: rgb(36, 36, 36); fill-opacity: 1; white-space: pre;">Topic 24</text></g><g class="slider-label-group" transform="translate(448.6666666666667,72.6)"><text class="slider-label" text-anchor="middle" data-notex="1" x="0" y="0" style="font-family: 'Open Sans', verdana, arial, sans-serif; font-size: 12px; fill: rgb(36, 36, 36); fill-opacity: 1; white-space: pre;">Topic 28</text></g></g><rect class="slider-tick-rect" width="1px" shape-rendering="crispEdges" height="7" transform="translate(9.5,50)" style="fill: rgb(51, 51, 51); fill-opacity: 1;"/><rect class="slider-tick-rect" width="1px" shape-rendering="crispEdges" height="4" transform="translate(25.166666666666664,50)" style="fill: rgb(51, 51, 51); fill-opacity: 1;"/><rect class="slider-tick-rect" width="1px" shape-rendering="crispEdges" height="4" transform="translate(40.83333333333333,50)" style="fill: rgb(51, 51, 51); fill-opacity: 1;"/><rect class="slider-tick-rect" width="1px" shape-rendering="crispEdges" height="4" transform="translate(56.5,50)" style="fill: rgb(51, 51, 51); fill-opacity: 1;"/><rect class="slider-tick-rect" width="1px" shape-rendering="crispEdges" height="7" transform="translate(72.16666666666666,50)" style="fill: rgb(51, 51, 51); fill-opacity: 1;"/><rect class="slider-tick-rect" width="1px" shape-rendering="crispEdges" height="4" transform="translate(87.83333333333333,50)" style="fill: rgb(51, 51, 51); fill-opacity: 1;"/><rect class="slider-tick-rect" width="1px" shape-rendering="crispEdges" height="4" transform="translate(103.5,50)" style="fill: rgb(51, 51, 51); fill-opacity: 1;"/><rect class="slider-tick-rect" width="1px" shape-rendering="crispEdges" height="4" transform="translate(119.16666666666667,50)" style="fill: rgb(51, 51, 51); fill-opacity: 1;"/><rect class="slider-tick-rect" width="1px" shape-rendering="crispEdges" height="7" transform="translate(134.83333333333331,50)" style="fill: rgb(51, 51, 51); fill-opacity: 1;"/><rect class="slider-tick-rect" width="1px" shape-rendering="crispEdges" height="4" transform="translate(150.5,50)" style="fill: rgb(51, 51, 51); fill-opacity: 1;"/><rect class="slider-tick-rect" width="1px" shape-rendering="crispEdges" height="4" transform="translate(166.16666666666666,50)" style="fill: rgb(51, 51, 51); fill-opacity: 1;"/><rect class="slider-tick-rect" width="1px" shape-rendering="crispEdges" height="4" transform="translate(181.83333333333331,50)" style="fill: rgb(51, 51, 51); fill-opacity: 1;"/><rect class="slider-tick-rect" width="1px" shape-rendering="crispEdges" height="7" transform="translate(197.5,50)" style="fill: rgb(51, 51, 51); fill-opacity: 1;"/><rect class="slider-tick-rect" width="1px" shape-rendering="crispEdges" height="4" transform="translate(213.16666666666669,50)" style="fill: rgb(51, 51, 51); fill-opacity: 1;"/><rect class="slider-tick-rect" width="1px" shape-rendering="crispEdges" height="4" transform="translate(228.83333333333334,50)" style="fill: rgb(51, 51, 51); fill-opacity: 1;"/><rect class="slider-tick-rect" width="1px" shape-rendering="crispEdges" height="4" transform="translate(244.5,50)" style="fill: rgb(51, 51, 51); fill-opacity: 1;"/><rect class="slider-tick-rect" width="1px" shape-rendering="crispEdges" height="7" transform="translate(260.16666666666663,50)" style="fill: rgb(51, 51, 51); fill-opacity: 1;"/><rect class="slider-tick-rect" width="1px" shape-rendering="crispEdges" height="4" transform="translate(275.8333333333333,50)" style="fill: rgb(51, 51, 51); fill-opacity: 1;"/><rect class="slider-tick-rect" width="1px" shape-rendering="crispEdges" height="4" transform="translate(291.5,50)" style="fill: rgb(51, 51, 51); fill-opacity: 1;"/><rect class="slider-tick-rect" width="1px" shape-rendering="crispEdges" height="4" transform="translate(307.16666666666663,50)" style="fill: rgb(51, 51, 51); fill-opacity: 1;"/><rect class="slider-tick-rect" width="1px" shape-rendering="crispEdges" height="7" transform="translate(322.8333333333333,50)" style="fill: rgb(51, 51, 51); fill-opacity: 1;"/><rect class="slider-tick-rect" width="1px" shape-rendering="crispEdges" height="4" transform="translate(338.5,50)" style="fill: rgb(51, 51, 51); fill-opacity: 1;"/><rect class="slider-tick-rect" width="1px" shape-rendering="crispEdges" height="4" transform="translate(354.16666666666663,50)" style="fill: rgb(51, 51, 51); fill-opacity: 1;"/><rect class="slider-tick-rect" width="1px" shape-rendering="crispEdges" height="4" transform="translate(369.83333333333337,50)" style="fill: rgb(51, 51, 51); fill-opacity: 1;"/><rect class="slider-tick-rect" width="1px" shape-rendering="crispEdges" height="7" transform="translate(385.5,50)" style="fill: rgb(51, 51, 51); fill-opacity: 1;"/><rect class="slider-tick-rect" width="1px" shape-rendering="crispEdges" height="4" transform="translate(401.1666666666667,50)" style="fill: rgb(51, 51, 51); fill-opacity: 1;"/><rect class="slider-tick-rect" width="1px" shape-rendering="crispEdges" height="4" transform="translate(416.83333333333337,50)" style="fill: rgb(51, 51, 51); fill-opacity: 1;"/><rect class="slider-tick-rect" width="1px" shape-rendering="crispEdges" height="4" transform="translate(432.5,50)" style="fill: rgb(51, 51, 51); fill-opacity: 1;"/><rect class="slider-tick-rect" width="1px" shape-rendering="crispEdges" height="7" transform="translate(448.1666666666667,50)" style="fill: rgb(51, 51, 51); fill-opacity: 1;"/><rect class="slider-tick-rect" width="1px" shape-rendering="crispEdges" height="4" transform="translate(463.8333333333333,50)" style="fill: rgb(51, 51, 51); fill-opacity: 1;"/><rect class="slider-tick-rect" width="1px" shape-rendering="crispEdges" height="4" transform="translate(479.5,50)" style="fill: rgb(51, 51, 51); fill-opacity: 1;"/><rect class="slider-rail-touch-rect" width="490" height="46.5" opacity="0" transform="translate(0,25)" style="pointer-events: all; fill: rgb(248, 250, 252); fill-opacity: 1;"/><rect class="slider-grip-rect" width="20" height="20" rx="10" ry="10" transform="translate(0,25)" style="pointer-events: all; stroke: rgb(190, 200, 217); stroke-opacity: 1; fill: rgb(248, 250, 252); fill-opacity: 1; stroke-width: 1px;"/></g></g><g class="g-gtitle"><text class="gtitle" x="325" y="32.5" text-anchor="middle" dy="0.7em" style="font-family: 'Open Sans', verdana, arial, sans-serif; font-size: 22px; fill: rgb(0, 0, 0); opacity: 1; font-weight: normal; white-space: pre;"><tspan style="font-weight:bold">Intertopic Distance Map</tspan></text></g><g class="annotation" data-index="0" style="opacity: 1;"><g class="annotation-text-g" transform="rotate(0,80,278)"><g class="cursor-pointer" transform="translate(70,269)"><rect class="bg" x="0.5" y="0.5" width="20" height="18" style="stroke-width: 1px; stroke: rgb(0, 0, 0); stroke-opacity: 0; fill: rgb(0, 0, 0); fill-opacity: 0;"/><text class="annotation-text" text-anchor="middle" x="10.4375" y="14" style="font-family: 'Open Sans', verdana, arial, sans-serif; font-size: 12px; fill: rgb(36, 36, 36); fill-opacity: 1; white-space: pre;">D1</text></g></g></g><g class="annotation" data-index="1" style="opacity: 1;"><g class="annotation-text-g" transform="rotate(0,335,60)"><g class="cursor-pointer" transform="translate(325,51)"><rect class="bg" x="0.5" y="0.5" width="20" height="18" style="stroke-width: 1px; stroke: rgb(0, 0, 0); stroke-opacity: 0; fill: rgb(0, 0, 0); fill-opacity: 0;"/><text class="annotation-text" text-anchor="middle" x="10.4375" y="14" style="font-family: 'Open Sans', verdana, arial, sans-serif; font-size: 12px; fill: rgb(36, 36, 36); fill-opacity: 1; white-space: pre;">D2</text></g></g></g></g></svg>